<svg width="20" height="20" viewBox="0 0 20 20" fill="none" xmlns="http://www.w3.org/2000/svg">
<path d="M15.1336 8.05355L15.1336 8.0536L15.1395 8.04751C15.6136 7.55706 15.6221 6.77495 15.1336 6.28645C14.6483 5.80118 13.8517 5.80118 13.3664 6.28645L8.58 11.0729L6.63355 9.12645C6.14829 8.64118 5.35171 8.64118 4.86645 9.12645C4.38118 9.61171 4.38118 10.4083 4.86645 10.8936L7.69645 13.7236C7.92914 13.9563 8.24589 14.09 8.58 14.09C8.91411 14.09 9.23085 13.9563 9.46355 13.7236L15.1336 8.05355ZM0.5 10C0.5 4.76614 4.76614 0.5 10 0.5C15.2339 0.5 19.5 4.76614 19.5 10C19.5 15.2339 15.2339 19.5 10 19.5C4.76614 19.5 0.5 15.2339 0.5 10Z" stroke="#999999"/>
</svg>
